<svg version="1.2" baseProfile="tiny-ps" xmlns="http://www.w3.org/2000/svg" viewBox="0 0 114 24" width="114" height="24">
	<title>global</title>
	<style>
		tspan { white-space:pre }
		.shp0 { fill: #171717 } 
	</style>
	<g id="global">
		<path id="Shape 1" class="shp0" d="M10.05 3.6C3.93 2.25 -0.67 6.87 0.7 13.02C1.28 15.58 3.28 17.59 5.81 18.16C11.92 19.55 16.51 14.92 15.16 8.75C14.6 6.19 12.59 4.17 10.05 3.6ZM7.94 16.06C5.05 16.06 3.03 13.93 3.03 10.88C3.03 7.82 5.05 5.69 7.94 5.69C10.82 5.69 12.82 7.82 12.82 10.87C12.82 13.93 10.82 16.06 7.94 16.06ZM26.72 3.36C24.6 3.36 22.86 4.08 21.71 5.4L21.71 3.47L19.24 3.47L19.24 18.27L21.79 18.27L21.79 10.52C21.79 7.53 23.5 5.74 26.38 5.74C28.92 5.74 30.27 7.19 30.27 9.93L30.27 18.27L32.82 18.27L32.81 9.74C32.81 5.75 30.54 3.36 26.72 3.36ZM44.71 3.36C42.61 3.36 40.84 4.15 39.61 5.59L39.61 3.47L37.15 3.47L37.15 23.49L39.7 23.49L39.69 16.25C40.92 17.65 42.67 18.41 44.71 18.41C48.95 18.41 52.03 15.24 52.03 10.87C52.03 6.52 48.95 3.36 44.71 3.36ZM44.58 16.06C41.69 16.06 39.67 13.93 39.67 10.87C39.67 7.82 41.69 5.68 44.58 5.68C47.42 5.68 49.49 7.86 49.49 10.87C49.49 13.92 47.47 16.06 44.58 16.06ZM80.74 3.48L80.75 18.28L83.29 18.28L83.29 3.48L80.74 3.48ZM95.58 3.37C93.46 3.37 91.72 4.09 90.57 5.41L90.57 3.48L88.1 3.48L88.1 18.28L90.65 18.28L90.65 10.53C90.65 7.53 92.36 5.74 95.24 5.74C97.78 5.74 99.13 7.19 99.13 9.93L99.13 18.28L101.68 18.28L101.68 9.75C101.67 5.75 99.4 3.37 95.58 3.37ZM112.55 15.06L112.23 15.35C111.79 15.76 111.11 15.99 110.38 15.99C108.99 15.99 108.28 15.24 108.28 13.75L108.28 5.67L112.53 5.67L112.53 3.41L108.28 3.41L108.28 0.34L105.75 0.34L105.75 3.41L105.75 5.67L105.75 13.86C105.75 16.67 107.36 18.28 110.17 18.28C111.42 18.28 112.57 17.88 113.33 17.2L113.51 17.04L112.55 15.06ZM66.04 0.75C60.21 0.75 55.9 4.98 55.9 10.92C55.9 16.87 60.22 21.13 66.04 21.13C71.87 21.13 76.14 16.86 76.14 10.92C76.14 4.97 71.87 0.75 66.04 0.75ZM70.64 15.55L61.36 15.56C60.64 15.56 60.06 14.97 60.06 14.25L60.06 7.68C60.06 6.93 60.66 6.32 61.4 6.32L70.64 6.32C71.39 6.32 71.99 6.93 71.99 7.68L71.99 14.2C71.99 14.95 71.39 15.55 70.64 15.55Z" />
	</g>
</svg>